# File created by Blade
# Date/Time:  Tue Sep 30 19:06:56 2014
#---------------------------------------------------------
:version 1.10
:name HOM
:units
  mass 1.0
  length 1.000000
  angle deg
:documentation
     Acclaim Skeleton File
:root
   axis xyz
   order TX TY TZ RX RY RZ
   position 0.000000 0.000000 0.000000
   orientation 0 0 0
:bonedata
   begin
      id 1
      name Spine_dum
      direction 0.000000 1.000000 0.000000
      length 7.508948
      axis 0.0 0.0 0.0 xyz
   end
   begin
      id 2
      name LeftUpLeg_dum
      direction 1.000000 0.000000 0.000000
      length 3.000560
      axis 0.0 0.0 0.0 xyz
   end
   begin
      id 3
      name RightUpLeg_dum
      direction -1.000000 0.000000 0.000000
      length 3.000560
      axis 0.0 0.0 0.0 xyz
   end
   begin
      id 4
      name Spine
      direction 0.000000 1.000000 0.000000
      length 0.000000
      axis 0.0 0.0 0.0 xyz
      dof rx ry rz
   end
   begin
      id 5
      name Spine_dum1
      direction 0.000000 1.000000 0.000000
      length 13.861154
      axis 0.0 0.0 0.0 xyz
   end
   begin
      id 6
      name Spine_dum2
      direction 0.000000 1.000000 0.000000
      length 8.204781
      axis 0.0 0.0 0.0 xyz
   end
   begin
      id 7
      name Spine_dum3
      direction 0.000000 1.000000 0.000000
      length 8.204781
      axis 0.0 0.0 0.0 xyz
   end
   begin
      id 8
      name Head
      direction 0.000000 1.000000 0.000000
      length 4.527550
      axis 0.0 0.0 0.0 xyz
      dof rx ry rz
   end
   begin
      id 9
      name LeftShoulder
      direction 1.000000 0.000000 0.000000
      length 6.635956
      axis 0.0 0.0 -90.0 xyz
      dof rx ry rz
   end
   begin
      id 10
      name LeftArm
      direction 1.000000 0.000000 0.000000
      length 10.274218
      axis 0.0 0.0 -90.0 xyz
      dof rx ry rz
   end
   begin
      id 11
      name LeftForeArm
      direction 1.000000 0.000000 0.000000
      length 8.522147
      axis 0.0 0.0 -90.0 xyz
      dof ry rz rx
   end
   begin
      id 12
      name LeftHand
      direction 0.000000 0.000000 0.000000
      length 0.000000
      axis 0.0 0.0 -90.0 xyz
      dof rx ry rz
   end
   begin
      id 13
      name LeftHand_dum1
      direction 0.000000 0.000000 0.000000
      length 0.000000
      axis 0.0 0.0 -90.0 xyz
   end
   begin
      id 14
      name LeftHand_dum2
      direction 1.000000 0.000000 0.000000
      length 3.937000
      axis 0.0 0.0 -90.0 xyz
   end
   begin
      id 15
      name LeftHandThumb1
      direction 0.000000 0.000000 1.000000
      length 3.937000
      axis 0.0 0.0 -90.0 xyz
      dof rx rz ry
   end
   begin
      id 16
      name RightShoulder
      direction -1.000000 0.000000 0.000000
      length 6.635956
      axis 0.0 0.0 90.0 xyz
      dof rx ry rz
   end
   begin
      id 17
      name RightArm
      direction -1.000000 0.000000 0.000000
      length 10.274218
      axis 0.0 0.0 90.0 xyz
      dof rx ry rz
   end
   begin
      id 18
      name RightForeArm
      direction -1.000000 0.000000 0.000000
      length 8.522147
      axis 0.0 0.0 90.0 xyz
      dof ry rz rx
   end
   begin
      id 19
      name RightHand
      direction 0.000000 0.000000 0.000000
      length 0.000000
      axis 0.0 0.0 90.0 xyz
      dof rx ry rz
   end
   begin
      id 20
      name RightHand_dum1
      direction 0.000000 0.000000 0.000000
      length 0.000000
      axis 0.0 0.0 90.0 xyz
   end
   begin
      id 21
      name RightHand_dum2
      direction -1.000000 0.000000 0.000000
      length 3.937000
      axis 0.0 0.0 90.0 xyz
   end
   begin
      id 22
      name RightHandThumb1
      direction 0.000000 0.000000 1.000000
      length 3.937000
      axis 0.0 0.0 90.0 xyz
      dof rx rz ry
   end
   begin
      id 23
      name LeftUpLeg
      direction 0.000000 -1.000000 0.000000
      length 16.490845
      axis 0.0 0.0 0.0 xyz
      dof rx ry rz
   end
   begin
      id 24
      name LeftLeg
      direction 0.000000 -1.000000 0.000000
      length 14.556576
      axis 0.0 0.0 0.0 xyz
      dof rx ry rz
   end
   begin
      id 25
      name LeftFoot
      direction 0.000000 -0.258819 0.965926
      length 4.831116
      axis 15.0 0.0 0.0 xyz
      dof rx ry rz
   end
   begin
      id 26
      name LeftToeBase
      direction 0.000000 0.000000 1.000000
      length 2.952750
      axis 0.0 0.0 0.0 xyz
      dof rx ry rz
   end
   begin
      id 27
      name RightUpLeg
      direction 0.000000 -1.000000 0.000000
      length 16.490845
      axis 0.0 0.0 0.0 xyz
      dof rx ry rz
   end
   begin
      id 28
      name RightLeg
      direction 0.000000 -1.000000 0.000000
      length 14.556576
      axis 0.0 0.0 0.0 xyz
      dof rx ry rz
   end
   begin
      id 29
      name RightFoot
      direction 0.000000 -0.258819 0.965926
      length 4.831116
      axis 15.0 0.0 0.0 xyz
      dof rx ry rz
   end
   begin
      id 30
      name RightToeBase
      direction 0.000000 0.000000 1.000000
      length 2.952750
      axis 0.0 0.0 0.0 xyz
      dof rx ry rz
   end
:hierarchy
   begin
      root Spine_dum LeftUpLeg_dum RightUpLeg_dum
      Spine_dum Spine
      LeftUpLeg_dum LeftUpLeg
      RightUpLeg_dum RightUpLeg
      Spine Spine_dum1 Spine_dum2 Spine_dum3
      Spine_dum1 Head
      Spine_dum2 LeftShoulder
      Spine_dum3 RightShoulder
      LeftShoulder LeftArm
      LeftArm LeftForeArm
      LeftForeArm LeftHand
      LeftHand LeftHand_dum1 LeftHand_dum2
      LeftHand_dum1 LeftHandThumb1
      RightShoulder RightArm
      RightArm RightForeArm
      RightForeArm RightHand
      RightHand RightHand_dum1 RightHand_dum2
      RightHand_dum1 RightHandThumb1
      LeftUpLeg LeftLeg
      LeftLeg LeftFoot
      LeftFoot LeftToeBase
      RightUpLeg RightLeg
      RightLeg RightFoot
      RightFoot RightToeBase
   end

# File created by Blade
# Date/Time:  Thu Sep 25 19:04:16 2014
# Frame Rate: 120.000 fps
#------------------------------------------------------
:FULLY-SPECIFIED
:DEGREES
1
root -2.441360 32.886990 -1.463285 11.570437 2.363896 -1.468378
Spine -12.460263 4.832538 0.300356
Head -8.884474 -1.303352 10.458613
LeftShoulder -14.751623 17.576503 26.607047
LeftArm 18.396716 -25.652363 -30.082586
LeftForeArm 12.041725 0.000000 14.550292
LeftHand -25.889358 -0.000000 -7.483679
LeftHandThumb1 -26.253704 0.000000 33.147579
RightShoulder -20.754313 13.533182 -39.179052
RightArm -8.285354 6.593777 30.293103
RightForeArm -28.593799 -0.000000 14.752533
RightHand -8.642433 -0.000000 10.402626
RightHandThumb1 -24.326973 -0.000000 -32.862282
LeftUpLeg -5.994562 8.657650 6.137413
LeftLeg -0.890592 -0.000000 0.000000
LeftFoot -9.029918 3.068356 -18.790124
LeftToeBase 10.110206 -0.000000 -0.000000
RightUpLeg -7.444164 -7.482792 -1.910338
RightLeg 1.832451 -0.000000 -0.000000
RightFoot -7.378178 -6.309549 4.218620
RightToeBase 0.690667 -0.000000 -0.000000
2
root -2.446469 32.887248 -1.468853 11.570556 2.358099 -1.481608
Spine -12.454093 4.839597 0.297131
Head -8.901078 -1.289893 10.476072
LeftShoulder -14.764231 17.612365 26.593230
LeftArm 18.442762 -25.661296 -30.092240
LeftForeArm 11.906306 -0.000000 14.551400
LeftHand -25.949691 0.000000 -7.532930
LeftHandThumb1 -26.253704 0.000000 33.147579
RightShoulder -20.754467 13.539176 -39.168965
RightArm -8.283395 6.574473 30.302012
RightForeArm -28.589570 -0.000000 14.761690
RightHand -8.656933 -0.000000 10.381633
RightHandThumb1 -24.326973 -0.000000 -32.862282
LeftUpLeg -6.009803 8.683418 6.154186
LeftLeg -0.882867 -0.000000 0.000000
LeftFoot -9.020151 3.063387 -18.812364
LeftToeBase 10.082731 -0.000000 -0.000000
RightUpLeg -7.456187 -7.494961 -1.886742
RightLeg 1.831792 -0.000000 -0.000000
RightFoot -7.376975 -6.276134 4.231771
RightToeBase 0.721299 -0.000000 -0.000000
3
root -2.450908 32.887735 -1.475979 11.580832 2.331932 -1.479968
Spine -12.457567 4.858301 0.267764
Head -8.914538 -1.277905 10.494527
LeftShoulder -14.741972 17.614599 26.616748
LeftArm 18.419469 -25.633301 -30.109265
LeftForeArm 11.959877 -0.000000 14.552897
LeftHand -25.903312 -0.000000 -7.521007
LeftHandThumb1 -26.253704 0.000000 33.147579
RightShoulder -20.746381 13.540757 -39.159377
RightArm -8.287591 6.592428 30.321027
RightForeArm -28.592950 0.000000 14.772483
RightHand -8.649563 -0.000000 10.373864
RightHandThumb1 -24.326973 -0.000000 -32.862282
LeftUpLeg -6.028681 8.704446 6.153159
LeftLeg -0.880843 -0.000000 0.000000
LeftFoot -9.010367 3.064120 -18.825701
LeftToeBase 10.122704 -0.000000 -0.000000
RightUpLeg -7.485195 -7.469616 -1.883075
RightLeg 1.835831 -0.000000 -0.000000
RightFoot -7.367333 -6.280826 4.217359
RightToeBase 0.712673 -0.000000 -0.000000
4
root -2.454918 32.888483 -1.481667 11.584586 2.322678 -1.490048
Spine -12.454803 4.871059 0.263176
Head -8.930330 -1.279630 10.497583
LeftShoulder -14.745583 17.614653 26.615002
LeftArm 18.449261 -25.617018 -30.125969
LeftForeArm 11.927333 -0.000000 14.527176
LeftHand -25.877205 0.000000 -7.522270
LeftHandThumb1 -26.253704 0.000000 33.147579
RightShoulder -20.744626 13.543834 -39.151091
RightArm -8.293898 6.599021 30.323222
RightForeArm -28.616690 0.000000 14.788898
RightHand -8.643496 -0.000000 10.377012
RightHandThumb1 -24.326973 -0.000000 -32.862282
LeftUpLeg -6.040640 8.715754 6.165038
LeftLeg -0.886194 -0.000000 0.000000
LeftFoot -8.989070 3.081586 -18.811163
LeftToeBase 10.062442 -0.000000 -0.000000
RightUpLeg -7.502589 -7.476410 -1.864028
RightLeg 1.837236 -0.000000 -0.000000
RightFoot -7.353715 -6.267521 4.187786
RightToeBase 0.725497 -0.000000 -0.000000
